<svg xmlns="http://www.w3.org/2000/svg">
  <!-- karmechanics.com icon sprite — simple line icons, stroke = currentColor.
       Usage: <svg class="icon"><use href="/assets/icons.svg#icon-check"></use></svg> -->
  <defs>
    <symbol id="icon-phone" viewBox="0 0 24 24" fill="none" stroke="currentColor" stroke-width="1.8" stroke-linecap="round" stroke-linejoin="round">
      <path d="M5 4h3.6l1.7 4.3-2.3 1.8a13.5 13.5 0 0 0 5.9 5.9l1.8-2.3L20 15.4V19a1.6 1.6 0 0 1-1.7 1.6C10.8 20 4 13.2 3.4 5.7A1.6 1.6 0 0 1 5 4z"/>
    </symbol>
    <symbol id="icon-clock" viewBox="0 0 24 24" fill="none" stroke="currentColor" stroke-width="1.8" stroke-linecap="round" stroke-linejoin="round">
      <circle cx="12" cy="12" r="9"/>
      <path d="M12 7v5l3.5 2"/>
    </symbol>
    <symbol id="icon-message" viewBox="0 0 24 24" fill="none" stroke="currentColor" stroke-width="1.8" stroke-linecap="round" stroke-linejoin="round">
      <path d="M21 12a8 8 0 0 1-8 8H4l2-3.2A8 8 0 1 1 21 12z"/>
      <path d="M8.5 10.5h7"/>
      <path d="M8.5 13.5h4.5"/>
    </symbol>
    <symbol id="icon-forward" viewBox="0 0 24 24" fill="none" stroke="currentColor" stroke-width="1.8" stroke-linecap="round" stroke-linejoin="round">
      <path d="M4 20v-7a4 4 0 0 1 4-4h11"/>
      <path d="M15 5l4 4-4 4"/>
    </symbol>
    <symbol id="icon-wrench" viewBox="0 0 24 24" fill="none" stroke="currentColor" stroke-width="1.8" stroke-linecap="round" stroke-linejoin="round">
      <path d="M14.7 6.3a1 1 0 0 0 0 1.4l1.6 1.6a1 1 0 0 0 1.4 0l3.77-3.77a6 6 0 0 1-7.94 7.94l-6.91 6.91a2.12 2.12 0 0 1-3-3l6.91-6.91a6 6 0 0 1 7.94-7.94l-3.76 3.76z"/>
    </symbol>
    <symbol id="icon-check" viewBox="0 0 24 24" fill="none" stroke="currentColor" stroke-width="2" stroke-linecap="round" stroke-linejoin="round">
      <path d="M5 12.5l4.5 4.5L19 7.5"/>
    </symbol>
    <symbol id="icon-arrow" viewBox="0 0 24 24" fill="none" stroke="currentColor" stroke-width="2" stroke-linecap="round" stroke-linejoin="round">
      <path d="M4 12h15"/>
      <path d="M13 6l6 6-6 6"/>
    </symbol>
    <symbol id="icon-mail" viewBox="0 0 24 24" fill="none" stroke="currentColor" stroke-width="1.8" stroke-linecap="round" stroke-linejoin="round">
      <rect x="3" y="5" width="18" height="14" rx="2"/>
      <path d="M3.5 7.5l8.5 6 8.5-6"/>
    </symbol>
  </defs>
</svg>
